<svg xmlns="http://www.w3.org/2000/svg" width="454" height="380" viewBox="0 0 454 380" version="1.1"><path d="M 217.206 34.557 C 208.170 36.989, 200.813 41.229, 193.319 48.324 C 185.718 55.521, 181.587 61.263, 170.528 80 C 166.794 86.325, 161.386 95.325, 158.508 100 C 139.249 131.291, 127.779 149.871, 117.625 166.224 C 111.231 176.522, 106 185.998, 106 187.282 C 106 188.567, 106.639 190.491, 107.421 191.559 C 108.689 193.291, 110.116 193.500, 120.671 193.500 C 137.492 193.500, 137.175 193.728, 150.500 172.026 C 153.250 167.547, 158.650 158.978, 162.500 152.984 C 173.825 135.352, 180.348 124.828, 182.761 120.297 C 184.004 117.962, 188.279 111.126, 192.261 105.105 C 196.242 99.085, 201.067 91.374, 202.983 87.970 C 204.898 84.566, 209.077 78.932, 212.268 75.449 C 220.827 66.109, 230.550 63.024, 241.384 66.211 C 248.537 68.315, 255.106 76.278, 270.928 102.023 C 278.864 114.935, 288.812 131.125, 293.035 138 C 308.708 163.517, 322.284 184.584, 324.853 187.376 C 329.518 192.445, 334.303 193.954, 345.795 193.978 C 355.519 193.999, 356.233 193.858, 358.647 191.444 C 360.248 189.843, 361.017 188.174, 360.705 186.982 C 360.431 185.934, 355.729 177.972, 350.256 169.288 C 335.082 145.212, 310.464 105.447, 299.075 86.617 C 284.769 62.964, 280.915 57.442, 273.397 49.823 C 266.390 42.724, 257.464 37.358, 248.068 34.596 C 241.271 32.599, 224.560 32.577, 217.206 34.557 M 219.251 156.484 C 210.639 158.903, 205.910 161.871, 197.889 169.890 C 191.134 176.644, 189.528 179.034, 183.620 191.130 C 176.397 205.921, 171.394 212.508, 164.151 216.766 C 159.500 219.500, 159.500 219.500, 125.500 220.001 C 98.440 220.400, 90.917 220.800, 88.642 221.961 C 85.312 223.660, 74.198 239.761, 73.318 244.160 C 72.437 248.564, 74.655 251.826, 79.423 253.138 C 82.341 253.941, 97.282 254.063, 131.990 253.568 C 174.977 252.955, 180.686 252.689, 182.298 251.230 C 183.298 250.325, 186.349 245.965, 189.076 241.542 C 191.804 237.119, 197.138 228.775, 200.930 223 C 204.721 217.225, 209.770 209.350, 212.148 205.500 C 214.527 201.650, 219.199 195.688, 222.530 192.250 C 228.270 186.326, 228.832 186, 233.294 186 C 237.464 186, 238.430 186.447, 241.751 189.914 C 245.045 193.352, 259.310 214.757, 275.587 240.684 C 284.463 254.821, 278.272 253.547, 336.486 253.210 C 382.885 252.942, 386.681 252.790, 389 251.111 C 392.965 248.242, 392.773 244.074, 388.338 236.753 C 382.678 227.409, 378.248 222.282, 374.794 221.078 C 372.835 220.395, 360.101 220, 340.047 220 C 308.393 220, 308.393 220, 303.219 217.422 C 295.818 213.734, 290.380 207.091, 282.448 192.046 C 272.515 173.206, 262.465 162.325, 250.803 157.783 C 243.804 155.057, 226.822 154.358, 219.251 156.484 M 223.734 246.088 C 217.403 247.580, 212.540 250.628, 207.237 256.431 C 195.147 269.659, 195.432 289.574, 207.909 303.363 C 220.591 317.380, 245.636 317.097, 258.497 302.792 C 266.845 293.507, 269.395 279.475, 264.911 267.491 C 262.595 261.302, 254.809 252.504, 248.976 249.487 C 241.171 245.449, 231.802 244.187, 223.734 246.088 M 126.218 281.663 C 122.268 283.610, 120.689 285.778, 114.660 297.527 C 106.801 312.843, 99.683 318.423, 88 318.429 C 77.744 318.435, 72.249 314.828, 66.286 304.177 C 64.139 300.341, 61.787 297.489, 60.308 296.927 C 58.967 296.417, 54.114 296, 49.524 296 C 41.460 296, 41.092 296.102, 38.629 299.029 C 35.375 302.896, 34.587 307.214, 35.992 313.473 C 39.666 329.839, 57.693 346.238, 76.086 349.947 C 83.583 351.459, 95.497 351.502, 100.900 350.036 C 107.203 348.326, 115.227 344.628, 120.487 341.009 C 126.058 337.176, 138.367 322.060, 143.973 312.168 C 147.684 305.618, 150.419 301.681, 160.196 288.809 C 163.328 284.686, 163.799 281.521, 161.418 280.607 C 160.548 280.273, 153.011 280.010, 144.668 280.023 C 132.749 280.041, 128.797 280.392, 126.218 281.663 M 303.571 281.571 C 302.707 282.436, 302 283.487, 302 283.908 C 302 284.328, 304.321 287.558, 307.159 291.086 C 309.996 294.614, 316.882 304.475, 322.460 313 C 339.152 338.509, 349.482 346.686, 370 350.630 C 378.833 352.328, 385.268 351.798, 396.500 348.446 C 410.780 344.184, 419.007 336.730, 426.953 320.854 C 432.542 309.687, 432.442 302.478, 426.633 297.772 C 424.968 296.423, 422.510 296.040, 415.424 296.022 C 405.313 295.997, 404.436 296.484, 400.448 304.334 C 394.470 316.102, 383.643 321.073, 371.611 317.575 C 363.846 315.318, 359.247 310.855, 351.565 298.121 C 344.747 286.820, 341.220 282.777, 336.685 281.064 C 335.137 280.479, 327.406 280, 319.506 280 C 307.782 280, 304.854 280.289, 303.571 281.571 M 169.900 319.991 C 164.762 322.707, 162.596 326.476, 162.583 332.725 C 162.570 338.625, 164.505 342.005, 170.092 345.838 C 172.787 347.687, 174.413 348.077, 177.864 347.698 C 189.547 346.418, 195.551 333.656, 188.698 324.671 C 183.591 317.975, 176.877 316.304, 169.900 319.991 M 283.500 319.412 C 274.029 323.621, 271.467 336.396, 278.734 343.175 C 282.494 346.683, 285.289 348, 288.974 348 C 300.353 348, 307.808 333.971, 301.184 325.023 C 296.523 318.727, 289.824 316.601, 283.500 319.412" stroke="none" fill="#c41414" fill-rule="evenodd"/></svg>